<svg viewBox="0 0 15 16" fill="none" xmlns="http://www.w3.org/2000/svg" role="presentation"><path d="M9.92723 0H14.7115C14.8709 0 15 0.12915 15 0.288462V5.07283C15 5.32981 14.6893 5.45852 14.5075 5.27679L12.7273 3.49653L8.40038 7.82346C8.06243 8.16141 7.51449 8.16141 7.17654 7.82346C6.83859 7.48551 6.83859 6.93757 7.17654 6.59962L11.5035 2.2727L9.72323 0.492438C9.5415 0.310719 9.67015 0 9.92723 0ZM2.01923 1.15385C0.904038 1.15385 0 2.05788 0 3.17308V12.9808C0 14.096 0.904038 15 2.01923 15H11.8269C12.9421 15 13.8462 14.096 13.8462 12.9808V8.94231C13.8462 8.46437 13.4587 8.07692 12.9808 8.07692C12.5028 8.07692 12.1154 8.46437 12.1154 8.94231V12.9808C12.1154 13.1401 11.9863 13.2692 11.8269 13.2692H2.01923C1.85992 13.2692 1.73077 13.1401 1.73077 12.9808V3.17308C1.73077 3.01377 1.85992 2.88462 2.01923 2.88462H6.05769C6.53563 2.88462 6.92308 2.49717 6.92308 2.01923C6.92308 1.5413 6.53563 1.15385 6.05769 1.15385H2.01923Z" fill="currentColor"/></svg>
