<svg width="280" height="429" viewBox="0 0 280 429" fill="none" xmlns="http://www.w3.org/2000/svg">
<path d="M-97.9157 1.01974C70.9088 0.92591 239.742 1.2074 408.567 1.01974C408.362 143.328 408.362 285.636 408.567 427.943C239.742 428.178 70.9088 427.584 -97.9157 427.943C-97.5646 285.636 -98.223 143.328 -97.9157 1.01974Z" stroke="#3A3A3C" stroke-width="0.387829" stroke-miterlimit="10"/>
<path d="M-97.918 389.129C-74.2178 391.827 -70.8032 405.072 -52.5891 415.777C-31.9085 427.943 -11.0172 416.997 6.81945 405.972C27.9916 392.859 51.1213 368.862 78.3327 365.719C101.225 363.076 127.313 377.088 147.063 385.368C168.13 394.204 191.751 406.605 215.829 405.08C241.346 403.47 265.521 389.677 288.334 380.653C308.945 372.498 331.741 363.795 354.528 370.246C374.717 375.97 386.128 387.448 408.564 389.137" stroke="#3A3A3C" stroke-width="0.387829" stroke-miterlimit="10"/>
<path d="M-97.918 350.346C-73.34 353.317 -90.6675 396.479 -87.5338 409.153C-79.1421 443.034 -40.6424 397.589 -31.6715 386.994C-15.3798 367.751 -0.948962 347.21 15.9572 328.351C24.9194 318.358 36.5413 301.93 51.1301 298.497C76.7527 292.477 119.431 330.047 136.89 341.886C158.246 356.359 193.454 389.496 222.825 385.594C236.352 383.796 253.1 372.185 263.554 365.632C280.706 354.865 296.989 343.035 313.764 331.822C326.571 323.221 368.028 290.209 385.531 308.6C396.197 319.804 383.082 350.127 408.617 350.283" stroke="#3A3A3C" stroke-width="0.387829" stroke-miterlimit="10"/>
<path d="M-97.918 311.538C-75.631 316.566 -75.157 330.539 -59.8133 343.12C-39.6242 359.673 -18.9611 341.83 -3.48576 328.584C15.0355 312.742 37.6736 279.801 65.2537 274.718C88.594 270.418 124.706 289.402 145.273 296.979C168.929 305.682 199.063 321.836 225.432 319.475C252.108 317.082 278.415 302.116 302.467 292.718C320.022 285.852 350.13 270.824 369.178 281.88C386.857 292.155 384.724 307.504 408.679 311.491" stroke="#3A3A3C" stroke-width="0.387829" stroke-miterlimit="10"/>
<path d="M-97.8711 272.646C-65.1736 267.783 -34.9339 256.703 -3.11411 248.806C19.7873 243.114 34.1391 241.151 55.3728 250.729C68.048 256.445 81.7063 266.024 96.3829 267.329C117.713 269.23 144.442 253.974 162.945 246.218C181.712 238.36 208.02 222.424 229.569 225.106C248.003 227.413 264.242 243.215 278.322 252.653C297.554 265.539 311.019 267.548 334.5 268.526C359.35 269.566 383.568 273.053 408.541 272.686" stroke="#3A3A3C" stroke-width="0.387829" stroke-miterlimit="10"/>
<path d="M-97.918 233.88C-47.5945 227.726 9.29478 175.729 57.1956 208.288C72.864 218.937 88.8573 238.086 110.038 240.174C131.834 242.316 152.585 225.122 168.2 214.113C184.466 202.642 204.321 185.87 226.766 188.466C243.655 190.421 256.014 202.243 269.207 210.508C287.43 221.909 301.852 221.815 323.331 223.863C352.088 226.608 379.51 233.809 408.573 233.903" stroke="#3A3A3C" stroke-width="0.387829" stroke-miterlimit="10"/>
<path d="M-97.918 195.081C-73.6296 192.43 -59.7255 178.864 -38.3251 170.005C-11.6492 158.965 12.4285 170.662 37.1206 181.335C68.361 194.823 105.307 220.431 141.182 223.433C159.317 224.958 167.832 216.044 177.97 204.316C189.285 191.218 196.527 188.185 213.872 184.205C230.286 180.444 239.196 170.185 251.441 160.638C268.839 147.087 283.919 145.273 305.653 153.163C340.958 165.978 370.609 188.263 408.547 195.073" stroke="#3A3A3C" stroke-width="0.387829" stroke-miterlimit="10"/>
<path d="M-97.918 156.244C-76.4561 153.46 -60.9193 143.577 -41.0462 136.837C-13.6944 127.571 10.4622 138.455 36.1024 148.37C69.8357 161.412 108.52 183.986 145.957 187.833C161.907 189.475 167.99 183.924 175.653 173.321C184.325 161.342 189.065 161.874 203.83 157.909C224.51 152.358 236.106 133.443 249.317 119.596C266.714 101.346 281.233 95.0281 306.812 106.053C342.265 121.339 368.994 148.988 408.573 156.26" stroke="#3A3A3C" stroke-width="0.387829" stroke-miterlimit="10"/>
<path d="M-97.918 117.467C-42.872 119.179 14.9741 117.091 69.5285 123.722C92.4123 126.513 116.745 126.654 138.874 130.681C183.096 138.719 226.389 110.429 264.836 93.6886C287.527 83.8053 322.331 64.6484 347.83 77.9175C371.381 90.1544 379.729 112.752 408.564 117.451" stroke="#3A3A3C" stroke-width="0.387829" stroke-miterlimit="10"/>
<path d="M-97.918 78.6443C-54.529 81.2011 -11.895 89.1766 31.1604 94.2825C43.7918 95.7838 76.5771 104.643 86.2064 92.359C92.4913 84.3366 85.6007 80.341 100.769 78.785C115.507 77.2759 115.867 81.6156 121.379 89.7318C127.62 98.9114 127.62 101.46 143.394 100.35C161.143 99.0678 182.131 91.1314 198.51 86.0646C223.51 78.3393 248.219 69.9025 273.122 61.8723C294.408 54.9993 344.758 31.3777 368.134 45.6867C386.488 56.9384 383.293 74.1717 408.582 78.6286" stroke="#3A3A3C" stroke-width="0.387829" stroke-miterlimit="10"/>
<path d="M-97.918 39.8236C-46.4095 41.0981 8.80323 55.0709 59.9167 46.032C88.0059 41.059 111.89 37.6577 140.164 44.7887C184.439 55.9544 227.012 41.708 270.331 32.1765C294.909 26.7579 321.242 19.9552 346.698 24.8969C368.441 29.1662 385.742 38.5491 408.564 39.8314" stroke="#3A3A3C" stroke-width="0.387829" stroke-miterlimit="10"/>
<path d="M270.47 1.01855C273.85 31.0752 290.229 64.1266 270.251 91.6108C261.631 103.457 250.062 113.708 248.14 128.447C245.673 147.095 255.987 168.097 262.184 185.526C269.452 205.958 272.287 225.763 277.826 246.226C282.338 262.92 296.067 276.478 306.205 290.639C321.048 311.375 322.005 326.004 310.515 348.43C296.751 375.234 276.659 398.472 270.462 427.934" stroke="#3A3A3C" stroke-width="0.387829" stroke-miterlimit="10"/>
<path d="M224.339 1.01855C215.649 29.832 193.274 50.8576 176.938 76.2463C163.183 97.6706 162.165 112.097 183.408 128.345C197.698 139.292 215.28 147.111 221.056 164.235C224.418 174.196 223.496 178.81 232.186 186.206C242.895 195.324 242.623 201.376 242.395 215.028C241.824 248.142 242.052 281.248 242.158 314.33C242.237 336.936 247.082 367.336 238.568 389.519C233.169 403.593 225.032 412.195 224.339 427.919" stroke="#3A3A3C" stroke-width="0.387829" stroke-miterlimit="10"/>
<path d="M178.32 1.01855C170.604 30.0509 148.405 51.7568 132.789 77.4895C118.49 101.103 120.114 114.904 142.366 132.38C158.631 145.164 181.594 155.931 187.466 175.823C189.222 181.796 189.643 188.74 191.258 194.675C201.195 231.119 188.853 272.952 183.876 309.702C178.504 349.376 180.479 388.268 178.381 427.95" stroke="#3A3A3C" stroke-width="0.387829" stroke-miterlimit="10"/>
<path d="M132.332 1.01855C132.139 23.436 125.257 44.2114 121.412 66.1674C117.146 90.7038 122.72 108.703 136.458 130.097C154.303 157.909 196.147 199.241 154.97 223.699C139.653 232.793 140.188 236.835 134.834 252.239C130.155 265.688 117.19 272.795 107.122 282.874C89.7417 300.272 94.0693 315.417 101.381 336.685C111.915 367.18 126.881 396.15 132.297 427.903" stroke="#3A3A3C" stroke-width="0.387829" stroke-miterlimit="10"/>
<path d="M86.2405 1.01855C85.7578 22.3491 89.7517 42.9681 91.6477 64.1423C93.7632 87.3963 96.1946 106.522 104.858 128.869C113.268 150.575 128.725 175.479 129.682 198.709C130.235 212.189 120.623 220.009 109.756 227.64C94.834 238.118 95.194 243.88 88.4087 258.69C82.1588 272.342 63.6639 274.437 50.6639 281.303C26.5072 294.056 33.6348 311.656 43.1939 332.463C57.9056 364.467 80.6403 393.124 86.2844 427.856" stroke="#3A3A3C" stroke-width="0.387829" stroke-miterlimit="10"/>
<path d="M40.242 1.01855C46.3075 28.2604 65.3994 49.0436 78.6715 73.5721C90.0212 94.543 89.9335 108.469 70.6222 124.24C57.9206 134.616 37.793 143.874 34.6329 160.528C32.219 173.227 42.4716 186.167 49.7748 196.16C59.7464 209.789 67.269 221.518 62.845 238.133C54.3656 269.996 19.9476 299.709 -0.478493 325.692C-13.9525 342.855 -47.0626 376.962 -17.2881 394.015C2.8571 405.564 31.1306 405.626 40.1893 427.981" stroke="#3A3A3C" stroke-width="0.387829" stroke-miterlimit="10"/>
<path d="M-5.80077 1.01855C3.1702 31.3489 29.8286 52.2338 48.2796 78.0446C53.6078 85.4884 64.6152 99.4612 59.9629 109.47C55.8988 118.227 38.8961 120.878 30.4957 122.34C13.1155 125.358 -28.7549 122.887 -35.4699 141.888C-40.8332 157.104 -13.6921 173.438 -3.25519 181.187C15.0466 194.776 32.0669 205.223 26.3262 227.851C22.2357 243.951 9.79748 259.589 0.77384 273.929C-14.9122 298.927 -31.9939 323.166 -48.1627 347.859C-54.9041 358.164 -106.518 420.71 -68.9487 424.447C-54.711 425.862 -9.96148 407.425 -5.84466 427.966" stroke="#3A3A3C" stroke-width="0.387829" stroke-miterlimit="10"/>
</svg>
