<svg
  width="432"
  height="516"
  viewBox="0 0 432 516"
  fill="none"
  xmlns="http://www.w3.org/2000/svg"
>
  <g clip-path="url(#clip0_9664_133459)">
    <rect x="24" width="384" height="8" fill="#888888" />
    <path
      d="M24 8H408V16H416V24H424V492H416V500H408V508H24V500H16V492H8V24H16V16H24V8Z"
      fill="#232323"
    />
    <path
      d="M40 24H392V32H408V40V452V460H392V468H40V460H24V452V40V32H40V24Z"
      fill="#3A41C4"
    />
    <rect x="40" y="24" width="352" height="8" fill="#888888" />
    <rect x="40" y="460" width="352" height="8" fill="#888888" />
    <rect x="16" y="8" width="8" height="8" fill="#888888" />
    <rect x="8" y="16" width="8" height="8" fill="#888888" />
    <rect x="408" y="8" width="8" height="8" fill="#888888" />
    <rect x="392" y="32" width="16" height="8" fill="#888888" />
    <rect x="24" y="32" width="16" height="8" fill="#888888" />
    <rect x="416" y="16" width="8" height="8" fill="#888888" />
    <rect x="8" y="492" width="8" height="8" fill="#888888" />
    <rect x="408" y="500" width="8" height="8" fill="#888888" />
    <rect x="392" y="452" width="16" height="8" fill="#888888" />
    <rect x="24" y="452" width="16" height="8" fill="#888888" />
    <rect x="416" y="492" width="8" height="8" fill="#888888" />
    <rect x="424" y="24" width="8" height="468" fill="#888888" />
    <rect x="408" y="40" width="8" height="412" fill="#888888" />
    <rect x="16" y="40" width="8" height="412" fill="#888888" />
    <rect x="16" y="500" width="8" height="8" fill="#888888" />
    <rect y="24" width="8" height="468" fill="#888888" />
    <rect x="24" y="508" width="384" height="8" fill="#888888" />
    <rect x="181" y="476" width="56" height="24" fill="#3A41C4" />
    <rect x="181" y="476" width="56" height="4" fill="#888888" />
    <rect x="181" y="496" width="56" height="4" fill="#888888" />
    <rect x="237" y="484" width="8" height="8" fill="#3A41C4" />
    <rect x="173" y="484" width="8" height="8" fill="#3A41C4" />
    <rect x="169" y="484" width="4" height="8" fill="#888888" />
    <rect x="245" y="484" width="4" height="8" fill="#888888" />
    <rect x="173" y="480" width="8" height="4" fill="#888888" />
    <rect x="237" y="480" width="8" height="4" fill="#888888" />
    <rect x="173" y="492" width="8" height="4" fill="#888888" />
    <rect x="237" y="492" width="8" height="4" fill="#888888" />
  </g>
  <defs>
    <clipPath id="clip0_9664_133459">
      <rect width="432" height="516" fill="white" />
    </clipPath>
  </defs>
</svg>
