<svg width="160" height="192" viewBox="0 0 160 192" fill="none" xmlns="http://www.w3.org/2000/svg">
<g clip-path="url(#clip0_9664_130778)">
<path d="M120 8H40V16H32V40H24V64H16V88H8V112H40H120H152V88H144V64H136V40H128V16H120V8Z" fill="#888888"/>
<path d="M152 120H144V152H152V120Z" fill="#5C7174"/>
<path d="M40 8H32V16H40V8Z" fill="#554A4A"/>
<path d="M128 8H120V16H128V8Z" fill="#554A4A"/>
<path d="M136 16H128V40H136V16Z" fill="#554A4A"/>
<path d="M144 40H136V64H144V40Z" fill="#554A4A"/>
<path d="M152 64H144V88H152V64Z" fill="#554A4A"/>
<path d="M160 88H152V112H160V88Z" fill="#554A4A"/>
<path d="M32 16H24V40H32V16Z" fill="#554A4A"/>
<path d="M24 40H16V64H24V40Z" fill="#554A4A"/>
<path d="M16 64H8V88H16V64Z" fill="#554A4A"/>
<path d="M8 88H0V112H8V88Z" fill="#554A4A"/>
<path d="M96 120H64V144H56V152H48V168H56V176H64V184H96V176H104V168H112V152H104V144H96V120Z" fill="#888888"/>
<path d="M120 160H112V168H120V160Z" fill="white"/>
<path d="M120 152H112V160H120V152Z" fill="white"/>
<path d="M112 168H104V176H112V168Z" fill="white"/>
<path d="M112 144H104V152H112V144Z" fill="white"/>
<path d="M104 176H96V184H104V176Z" fill="white"/>
<path d="M104 136H96V144H104V136Z" fill="white"/>
<path d="M104 128H96V136H104V128Z" fill="white"/>
<path d="M104 120H96V128H104V120Z" fill="white"/>
<path d="M96 184H88V192H96V184Z" fill="white"/>
<path d="M88 184H80V192H88V184Z" fill="white"/>
<path d="M80 184H72V192H80V184Z" fill="white"/>
<path d="M72 184H64V192H72V184Z" fill="white"/>
<path d="M64 176H56V184H64V176Z" fill="white"/>
<path d="M64 136H56V144H64V136Z" fill="white"/>
<path d="M64 128H56V136H64V128Z" fill="white"/>
<path d="M64 120H56V128H64V120Z" fill="white"/>
<path d="M56 168H48V176H56V168Z" fill="white"/>
<path d="M56 144H48V152H56V144Z" fill="white"/>
<path d="M48 160H40V168H48V160Z" fill="white"/>
<path d="M48 152H40V160H48V152Z" fill="white"/>
<path d="M120 0H40V8H120V0Z" fill="#554A4A"/>
<path d="M72 64H56V72H48V88H40V112H8V120H152V112H120V88H112V72H104V64H88V56H72V64Z" fill="#554A4A"/>
</g>
<defs>
<clipPath id="clip0_9664_130778">
<rect width="160" height="192" fill="white"/>
</clipPath>
</defs>
</svg>
