<svg width="238" height="186" viewBox="0 0 238 186" fill="none" xmlns="http://www.w3.org/2000/svg">
<path d="M39.1064 0.5V10.4775H48.8232L48.7334 19.5928L48.7275 20.0977H99.5166V10.4775H109.599V0.5H118.32V10.4775H128.401V29.7188H138.123V49.3164H177.798L177.729 58.79L177.727 59.293H187.812L187.812 68.7705V69.2705H208.615V58.293H198.894V39.6953H208.614L208.615 39.1963L208.634 29.4258V29.4238L208.616 20.0977H227.418V30.0752H237.5V87.8623H227.418V107.466H217.337V146.305H207.615V156.281H197.533V165.902H187.812V185.5H169.009V175.879H148.205V185.5H129.401V175.871H88.7949V185.5H69.9912V175.879H49.1875L49.1885 176.38L49.1982 185.499H30.3848V175.879H20.3213L20.3037 166.758L20.3027 166.259H10.582V156.281H0.5V49.541H10.4121V29.9248H20.3223V10.3086H30.0254V0.5H39.1064Z" stroke="white"/>
<rect x="65.875" y="66.6694" width="7.16373" height="7.16373" transform="rotate(-180 65.875 66.6694)" fill="white"/>
<rect x="58.6523" y="73.7588" width="7.16373" height="7.16373" transform="rotate(-180 58.6523 73.7588)" fill="white"/>
<rect x="73.0938" y="73.7588" width="7.16373" height="7.16373" transform="rotate(-180 73.0938 73.7588)" fill="white"/>
<path d="M95.7863 48.7075H94.0275V46.9602H92.2802V45.2129H87.0268V46.9602H85.268V48.7075H83.5207V50.4663H81.7734V55.7197H83.5207V57.467H85.268V59.2258H87.0268V60.9731H92.2802V59.2258H94.0275V57.467H95.7863V55.7197H97.5336V50.4663H95.7863V48.7075ZM92.2802 53.9724H90.5214V55.7197H88.7741V53.9724H87.0268V52.2136H88.7741V50.4663H90.5214V52.2136H92.2802V53.9724Z" fill="white"/>
<path d="M38.5363 48.7075H36.7775V46.9602H35.0302V45.2129H29.7768V46.9602H28.018V48.7075H26.2707V50.4663H24.5234V55.7197H26.2707V57.467H28.018V59.2258H29.7768V60.9731H35.0302V59.2258H36.7775V57.467H38.5363V55.7197H40.2836V50.4663H38.5363V48.7075ZM35.0302 53.9724H33.2714V55.7197H31.5241V53.9724H29.7768V52.2136H31.5241V50.4663H33.2714V52.2136H35.0302V53.9724Z" fill="white"/>
</svg>
