<svg width="176" height="142" viewBox="0 0 176 142" fill="none" xmlns="http://www.w3.org/2000/svg">
<g clip-path="url(#clip0_9664_133018)">
<path d="M140.869 27H135.275V29.8063H132.487V27H126.892V29.8063H124.086V35.3823H126.892V38.1887H129.68V40.9767H132.487V43.783H135.275V40.9767H138.063V38.1887H140.869V35.3823H143.657V29.8063H140.869V27Z" fill="#0F87F7"/>
<path d="M100.783 36H98.1887V37.3014H96.8957V36H94.3014V37.3014H93V39.8872H94.3014V41.1887H95.5943V42.4816H96.8957V43.783H98.1887V42.4816H99.4816V41.1887H100.783V39.8872H102.076V37.3014H100.783V36Z" fill="#0F87F7"/>
<path d="M145.783 72H141.855V73.9703H139.898V72H135.97V73.9703H134V77.8851H135.97V79.8553H137.928V81.8127H139.898V83.783H141.855V81.8127H143.813V79.8553H145.783V77.8851H147.74V73.9703H145.783V72Z" fill="#0F87F7"/>
<path d="M176 118H168V134H176V118Z" fill="#554A4A"/>
<path d="M176 8H168V24H176V8Z" fill="#554A4A"/>
<path d="M168 24H160V118H168V24Z" fill="#554A4A"/>
<path d="M168 0H152V8H168V0Z" fill="#554A4A"/>
<path d="M168 134H152V142H168V134Z" fill="#554A4A"/>
<path d="M152 126H24V134H152V126Z" fill="#554A4A"/>
<path d="M152 8H24V16H152V8Z" fill="#554A4A"/>
<path d="M24 0H8V8H24V0Z" fill="#554A4A"/>
<path d="M24 134H8V142H24V134Z" fill="#554A4A"/>
<path d="M16 24H8V118H16V24Z" fill="#554A4A"/>
<path d="M8 118H0V134H8V118Z" fill="#554A4A"/>
<path d="M8 8H0V24H8V8Z" fill="#554A4A"/>
<path d="M24 16H16V24H24V16Z" fill="#554A4A"/>
<path d="M160 16H152V24H160V16Z" fill="#554A4A"/>
<path d="M24 118H16V126H24V118Z" fill="#554A4A"/>
<path d="M160 118H152V126H160V118Z" fill="#554A4A"/>
<path d="M55.4114 105.252V101.649L51.8084 101.649V98.0458L48.2054 98.0458L48.2053 83.6335H44.6023V76.4274L40.9993 76.4274V54.8091L44.6023 54.8091V51.2061H51.8084L51.8084 54.8092L51.8084 58.4122H55.4115V65.6183L51.8084 65.6183L51.8084 69.2213H55.4115L59.0145 69.2213L59.0145 65.6183L62.6176 65.6183V62.0152H77.0297V54.8091H80.6329V47.603H84.2359L84.2359 44H87.8389V47.6031L91.4419 47.603V51.206H109.457V47.603H113.06L113.06 44H116.664V47.6031L120.266 47.603L120.266 54.8091H123.869L123.869 62.0152L127.473 62.0152V101.649H123.869L123.869 105.252L120.266 105.252V108.855H116.663L116.663 112.458H109.457L109.457 108.855L102.251 108.855V112.458H95.045V108.855H80.6328V112.458H73.4267L73.4267 108.855L66.2207 108.855V112.458H59.0145V108.855V105.252H55.4114Z" fill="#0F87F7"/>
<rect width="2.68197" height="2.68197" transform="matrix(1 0 0 -1 113.82 64.807)" fill="#090909"/>
<rect width="2.84454" height="2.84454" transform="matrix(1 0 0 -1 103.254 68.6292)" fill="#090909"/>
<rect width="2.84454" height="2.84454" transform="matrix(1 0 0 -1 106.098 71.4727)" fill="#090909"/>
<rect width="2.84454" height="2.84454" transform="matrix(1 0 0 -1 100.41 71.4724)" fill="#090909"/>
<rect width="2.84454" height="2.84454" transform="matrix(1 0 0 -1 110.793 62.0111)" fill="#090909"/>
<rect width="2.84454" height="2.84454" transform="matrix(1 0 0 -1 113.637 64.854)" fill="#090909"/>
<rect width="2.84454" height="2.84454" transform="matrix(1 0 0 -1 107.949 64.8539)" fill="#090909"/>
<rect width="2.84454" height="2.84454" transform="matrix(1 0 0 -1 96.5078 62.0111)" fill="#090909"/>
<rect width="2.84454" height="2.84454" transform="matrix(1 0 0 -1 99.3516 64.854)" fill="#090909"/>
<rect width="2.84454" height="2.84454" transform="matrix(1 0 0 -1 93.6641 64.8539)" fill="#090909"/>
<rect width="3.60305" height="3.94084" transform="matrix(1 0 0 -1 87.8398 71.5527)" fill="#3A41C4"/>
<rect width="3.60305" height="3.94084" transform="matrix(1 0 0 -1 116.664 71.5527)" fill="#3A41C4"/>
<rect width="2.68208" height="2.68208" transform="matrix(1 0 0 -1 93.582 64.807)" fill="#090909"/>
</g>
<defs>
<clipPath id="clip0_9664_133018">
<rect width="176" height="142" fill="white"/>
</clipPath>
</defs>
</svg>
