<svg width="364" height="315" viewBox="0 0 364 315" fill="none" xmlns="http://www.w3.org/2000/svg">
<g clip-path="url(#clip0_9917_79256)">
<rect y="291" width="236" height="24" fill="#554A4A"/>
<rect x="128" y="115" width="236" height="24" fill="#554A4A"/>
<path d="M164 276H167V282H170V285H176V288H182V291H211V288H214V285H220V282H223V276H226V271H229L229.037 265H226L226.087 253H223L223.124 247H200V250H197V262H167V259L164 259.025V276Z" fill="#FF923F"/>
<path d="M217 265H229V262H232V259H217V265Z" fill="#D4374E"/>
<path d="M172.875 273.399H175.826L175.825 276.326V279.266H178.788L178.788 282.194H181.739H184.69L184.689 285.134H187.652H190.604H193.566V282.194L196.517 282.194H199.479V279.266L202.431 279.266H205.393V276.326V273.399L208.344 273.399V270.459V267.531H205.393L205.393 270.459H202.43V273.399L202.431 276.326H199.479H196.517L196.517 279.266H193.566H190.603L190.604 282.194H187.652V279.266H184.69H181.739V276.326H178.788V273.399V270.459L181.739 270.459H184.69H187.652H190.604H193.566H196.517V267.531H193.566H190.604H187.652H184.69H181.739H178.788H175.826H172.875V270.459V273.399Z" fill="#232323"/>
<path d="M214.259 258.735V255.795V252.867H211.309V255.795V258.735H214.259Z" fill="#232323"/>
<path d="M220.169 258.735V255.795V252.867H217.219V255.795V258.735H220.169Z" fill="#232323"/>
<g clip-path="url(#clip1_9917_79256)">
<path d="M23 227V231H25V227H60V199H63V196H71V186H61V168H63V165H66V163H68V161H71V143H61V153H58V155H53V158H48V155H45V142H42V135H27V143H24V148H27V150H30V160H25V163H20V160H12V163H7V166H4V174H9V176H22V179H24V186H19V188H12V191H9V199H14V201H22V204H32V211H27V214H22V217H19V227H23Z" fill="#74DDBE"/>
<path d="M21 235V239H26V236H51V233H69V230H82V227H25V231H23V235H21Z" fill="#888888"/>
<path d="M26 241V243H110V239H112V237H114V233H112V231H110V227H82V230H69V233H51V236H26V239H24V241H26Z" fill="#554A4A"/>
<path d="M28 255V243H107V251H89V253H56V255H28Z" fill="#090909"/>
<path d="M28 266V255H56V253H89V251H107V266H105V289H102V292H33V289H31V266H28Z" fill="#3A3A3C"/>
<path d="M101 266V282H99V284H97V282H99V266H101Z" fill="#888888"/>
<path d="M52 222V227H112V224H114V212H111V210H106V207H102V196H125V191H127V183H124V181H119V178H114V176H110V168H112V166H127V163H132V153H129V151H124V148H114V151H106V148H104V145H102V137H107V122H104V120H98V118H93V120H88V125H86V138H84V143H81V145H76V142H71V140H68V138H58V150H61V156H66V159H71V161H73V173H63V171H55V168H50V171H47V173H45L44.9566 178.951H47V184H50V187H58V189H63V191H65V194H68V200H65V202H63V204H55V207H50V202H47V194H45V184H43V168H40V158H37V148H35V161H37V176H40V186H43V199H45V207H47V217H50V222H52Z" fill="#58B6A3"/>
<path d="M97 126H99V135H97V153H95V166H93V177H91V190H87V197H85V205H83V215H81V223H79V227H77V223H79V213H81V205H83V193H85V185H89V172H91V162H93V147H95V133H97V126Z" fill="#74DDBE"/>
<path d="M104 186H100V190H104V186Z" fill="#74DDBE"/>
<path d="M64 181H60V185H64V181Z" fill="#74DDBE"/>
<path d="M99 213H95V217H99V213Z" fill="#74DDBE"/>
<path d="M61 213H57V217H61V213Z" fill="#74DDBE"/>
<path d="M68 143H64V147H68V143Z" fill="#74DDBE"/>
<path d="M84 151H80V155H84V151Z" fill="#74DDBE"/>
<path d="M110 156H106V160H110V156Z" fill="#74DDBE"/>
<path d="M92 126H88V130H92V126Z" fill="#74DDBE"/>
<path d="M18 143H16V145H18V143Z" fill="#DB00FF"/>
<path d="M10 143H8V145H10V143Z" fill="#DB00FF"/>
<path d="M18 135H16V137H18V135Z" fill="#DB00FF"/>
<path d="M10 135H8V137H10V135Z" fill="#DB00FF"/>
<path d="M10 139V137H12V135H14V137H16V139H18V141H16V143H14V145H12V143H10V141H8V139H10Z" fill="#DB00FF"/>
<path d="M14 139H12V141H14V139Z" fill="white"/>
<path d="M24 207H22V209H24V207Z" fill="#DB00FF"/>
<path d="M16 207H14V209H16V207Z" fill="#DB00FF"/>
<path d="M24 199H22V201H24V199Z" fill="#DB00FF"/>
<path d="M16 199H14V201H16V199Z" fill="#DB00FF"/>
<path d="M16 203V201H18V199H20V201H22V203H24V205H22V207H20V209H18V207H16V205H14V203H16Z" fill="#DB00FF"/>
<path d="M20 203H18V205H20V203Z" fill="white"/>
<path d="M49 164H47V166H49V164Z" fill="#DB00FF"/>
<path d="M41 164H39V166H41V164Z" fill="#DB00FF"/>
<path d="M49 156H47V158H49V156Z" fill="#DB00FF"/>
<path d="M41 156H39V158H41V156Z" fill="#DB00FF"/>
<path d="M41 160V158H43V156H45V158H47V160H49V162H47V164H45V166H43V164H41V162H39V160H41Z" fill="#DB00FF"/>
<path d="M45 160H43V162H45V160Z" fill="white"/>
<path d="M113 141H111V143H113V141Z" fill="#DB00FF"/>
<path d="M105 141H103V143H105V141Z" fill="#DB00FF"/>
<path d="M113 133H111V135H113V133Z" fill="#DB00FF"/>
<path d="M105 133H103V135H105V133Z" fill="#DB00FF"/>
<path d="M105 137V135H107V133H109V135H111V137H113V139H111V141H109V143H107V141H105V139H103V137H105Z" fill="#DB00FF"/>
<path d="M109 137H107V139H109V137Z" fill="white"/>
<path d="M102 204H100V206H102V204Z" fill="#DB00FF"/>
<path d="M94 204H92V206H94V204Z" fill="#DB00FF"/>
<path d="M102 196H100V198H102V196Z" fill="#DB00FF"/>
<path d="M94 196H92V198H94V196Z" fill="#DB00FF"/>
<path d="M94 200V198H96V196H98V198H100V200H102V202H100V204H98V206H96V204H94V202H92V200H94Z" fill="#DB00FF"/>
<path d="M98 200H96V202H98V200Z" fill="white"/>
<path d="M37 187H33V191H37V187Z" fill="#DB00FF"/>
<path d="M16 166H12V170H16V166Z" fill="#DB00FF"/>
<path d="M39 140H35V144H39V140Z" fill="#DB00FF"/>
<path d="M64 162H60V166H64V162Z" fill="#DB00FF"/>
<path d="M56 195H52V199H56V195Z" fill="#DB00FF"/>
<path d="M37 215H33V219H37V215Z" fill="#DB00FF"/>
</g>
<g clip-path="url(#clip2_9917_79256)">
<path d="M229.894 8.59265H225.578V107.407H229.894V8.59265Z" fill="#090909"/>
<path d="M208.316 8.59265H204V107.407H208.316V8.59265Z" fill="#090909"/>
<path d="M126.316 8.59265H122V107.407H126.316V8.59265Z" fill="#090909"/>
<path d="M182.421 8.59265H178.105V107.407H182.421V8.59265Z" fill="#090909"/>
<path d="M195.367 8.59265H191.051V107.407H195.367V8.59265Z" fill="#090909"/>
<path d="M285.999 8.59265H281.684V107.407H285.999V8.59265Z" fill="#090909"/>
<path d="M234.21 4.29633H229.895V8.59262H234.21V4.29633Z" fill="#090909"/>
<path d="M130.632 4.29633H126.316V8.59262H130.632V4.29633Z" fill="#090909"/>
<path d="M178.105 4.29633H173.789V8.59262H178.105V4.29633Z" fill="#090909"/>
<path d="M191.054 4.29633H186.738V8.59262H191.054V4.29633Z" fill="#090909"/>
<path d="M191.054 107.407H186.738V111.704H191.054V107.407Z" fill="#090909"/>
<path d="M173.79 4.29633L178.105 4.29633L178.105 3.09944e-05L173.79 3.09946e-05L173.79 4.29633Z" fill="#3A3A3C"/>
<path d="M173.79 116L178.105 116L178.105 111.704L173.79 111.704L173.79 116Z" fill="#3A3A3C"/>
<path d="M186.737 6.10352e-05H178.105V4.29636H186.737V6.10352e-05Z" fill="#090909"/>
<path d="M186.737 111.704H178.105V116H186.737V111.704Z" fill="#090909"/>
<path d="M130.632 107.407H126.316V111.704H130.632V107.407Z" fill="#090909"/>
<path d="M191.053 8.59262V107.407H186.737V111.704H178.105V107.407H182.421V8.59262H178.105V4.29633H186.737V8.59262H191.053Z" fill="#3A3A3C"/>
<path d="M178.105 107.407H173.789V111.704H178.105V107.407Z" fill="#090909"/>
<path d="M212.632 4.29633H208.316V8.59262H212.632V4.29633Z" fill="#090909"/>
<path d="M212.632 107.407H208.316V111.704H212.632V107.407Z" fill="#090909"/>
<path d="M229.896 6.10352e-05H212.633V4.29636H229.896V6.10352e-05Z" fill="#090909"/>
<path d="M229.896 111.704H212.633V116H229.896V111.704Z" fill="#090909"/>
<path d="M225.58 8.59262V107.407H229.896V111.704H212.632V107.407H208.316V8.59262H212.632V4.29633H229.896V8.59262H225.58Z" fill="#3A3A3C"/>
<path d="M234.21 107.407H229.895V111.704H234.21V107.407Z" fill="#090909"/>
<path d="M234.21 111.704H229.895V116H234.21V111.704Z" fill="#3A3A3C"/>
<path d="M234.21 6.10352e-05H229.895V4.29636H234.21V6.10352e-05Z" fill="#3A3A3C"/>
<path d="M281.687 107.407H277.371V111.704H281.687V107.407Z" fill="#090909"/>
<path d="M281.687 4.29633H277.371V8.59262H281.687V4.29633Z" fill="#090909"/>
<path d="M277.369 111.704H234.211V116H277.369V111.704Z" fill="#090909"/>
<path d="M277.369 64.4445H234.211V68.7408H277.369V64.4445Z" fill="#090909"/>
<path d="M173.787 64.4445H130.629V68.7408H173.787V64.4445Z" fill="#090909"/>
<path d="M277.369 6.10352e-05H234.211V4.29636H277.369V6.10352e-05Z" fill="#090909"/>
<path d="M242.843 25.7778H238.527V42.963H242.843V25.7778Z" fill="white"/>
<path d="M273.054 25.7778H268.738V42.963H273.054V25.7778Z" fill="white"/>
<path d="M264.424 47.2593H247.16V51.5556H264.424V47.2593Z" fill="white"/>
<path d="M264.424 17.1852H247.16V21.4815H264.424V17.1852Z" fill="white"/>
<path d="M247.16 21.4816H242.844V25.7779H247.16V21.4816Z" fill="white"/>
<path d="M247.16 42.963H242.844V47.2593H247.16V42.963Z" fill="white"/>
<path d="M268.738 42.963H264.422V47.2593H268.738V42.963Z" fill="white"/>
<path d="M251.476 81.6296H247.16V85.9259H251.476V81.6296Z" fill="white"/>
<path d="M251.476 94.5186H247.16V98.8148H251.476V94.5186Z" fill="white"/>
<path d="M264.421 94.5186H260.105V98.8148H264.421V94.5186Z" fill="white"/>
<path d="M264.421 81.6296H260.105V85.9259H264.421V81.6296Z" fill="white"/>
<path d="M255.788 30.0742H251.473V34.3705H255.788V30.0742Z" fill="white" fill-opacity="0.8"/>
<path d="M255.788 85.926H251.473V90.2223H255.788V85.926Z" fill="white" fill-opacity="0.8"/>
<path d="M260.105 34.3704H255.789V38.6667H260.105V34.3704Z" fill="white" fill-opacity="0.8"/>
<path d="M255.788 34.3704H251.473V38.6667H255.788V34.3704Z" fill="#0F87F7"/>
<path d="M260.108 42.963H247.16V47.2593H260.108V42.963Z" fill="#0F87F7"/>
<path d="M247.16 30.0742H242.844V42.963H247.16V30.0742Z" fill="#0F87F7"/>
<path d="M260.105 30.0742H255.789V34.3705H260.105V30.0742Z" fill="#0F87F7"/>
<path d="M260.105 90.2222H255.789V94.5185H260.105V90.2222Z" fill="white" fill-opacity="0.8"/>
<path d="M268.738 21.4816H264.422V25.7779H268.738V21.4816Z" fill="white"/>
<path d="M169.472 25.7778H165.156V42.963H169.472V25.7778Z" fill="white"/>
<path d="M139.261 25.7778H134.945V42.963H139.261V25.7778Z" fill="white"/>
<path d="M160.841 47.2593H143.578V51.5556H160.841V47.2593Z" fill="white"/>
<path d="M160.841 17.1852H143.578V21.4815H160.841V17.1852Z" fill="white"/>
<path d="M165.156 21.4816H160.84V25.7779H165.156V21.4816Z" fill="white"/>
<path d="M165.156 42.963H160.84V47.2593H165.156V42.963Z" fill="white"/>
<path d="M143.578 42.963H139.262V47.2593H143.578V42.963Z" fill="white"/>
<path d="M156.527 30.0742H152.211V34.3705H156.527V30.0742Z" fill="#0F87F7"/>
<path d="M152.21 34.3704H147.895V38.6667H152.21V34.3704Z" fill="#0F87F7"/>
<path d="M156.527 34.3704H152.211V38.6667H156.527V34.3704Z" fill="white" fill-opacity="0.8"/>
<path d="M160.842 42.963H147.895V47.2593H160.842V42.963Z" fill="#0F87F7"/>
<path d="M165.156 30.0742H160.84V42.963H165.156V30.0742Z" fill="#0F87F7"/>
<path d="M152.21 30.0742H147.895V34.3705H152.21V30.0742Z" fill="white" fill-opacity="0.8"/>
<path d="M143.578 21.4816H139.262V25.7779H143.578V21.4816Z" fill="white"/>
<path d="M260.104 77.3334H251.473V81.6297H260.104V77.3334Z" fill="white"/>
<path d="M247.16 85.926H242.844V94.5186H247.16V85.926Z" fill="white"/>
<path d="M268.738 85.926H264.422V94.5186H268.738V85.926Z" fill="white"/>
<path d="M260.104 98.8148H251.473V103.111H260.104V98.8148Z" fill="white"/>
<path d="M160.843 81.6296H156.527V85.9259H160.843V81.6296Z" fill="white"/>
<path d="M160.843 94.5186H156.527V98.8148H160.843V94.5186Z" fill="white"/>
<path d="M147.894 94.5186H143.578V98.8148H147.894V94.5186Z" fill="white"/>
<path d="M147.894 81.6296H143.578V85.9259H147.894V81.6296Z" fill="white"/>
<path d="M156.527 85.926H152.211V90.2223H156.527V85.926Z" fill="white" fill-opacity="0.8"/>
<path d="M152.21 90.2222H147.895V94.5185H152.21V90.2222Z" fill="white" fill-opacity="0.8"/>
<path d="M156.526 77.3334H147.895V81.6297H156.526V77.3334Z" fill="white"/>
<path d="M165.156 85.926H160.84V94.5186H165.156V85.926Z" fill="white"/>
<path d="M143.578 85.926H139.262V94.5186H143.578V85.926Z" fill="white"/>
<path d="M156.526 98.8148H147.895V103.111H156.526V98.8148Z" fill="white"/>
<path d="M281.687 8.59265H277.371V85.926H281.687V8.59265Z" fill="#0F87F7"/>
<path d="M277.369 4.29633H260.105V8.59262H277.369V4.29633Z" fill="#0F87F7"/>
<path d="M277.369 85.9259V68.7407H234.21V64.4444H277.369V8.59262H260.105V4.29633H234.21V8.59262H229.895V107.407H281.685V85.9259H277.369ZM238.526 25.7778H242.842V21.4815H247.158V17.1852H264.421V21.4815H268.737V25.7778H273.053V42.963H268.737V47.2593H264.421V51.5556H247.158V47.2593H242.842V42.963H238.526V25.7778ZM268.737 94.5185H264.421V98.8148H260.105V103.111H251.474V98.8148H247.158V94.5185H242.842V85.9259H247.158V81.6296H251.474V77.3333H260.105V81.6296H264.421V85.9259H268.737V94.5185Z" fill="#888888"/>
<path d="M260.108 94.5186V98.8148H251.476V94.5186H247.16V85.926H251.476V90.2223H255.792V94.5186H260.108Z" fill="#0F87F7"/>
<path d="M264.42 85.9259V94.5185H260.104V90.2222H255.788V85.9259H251.473V81.6296H260.104V85.9259H264.42Z" fill="#888888"/>
<path d="M264.423 25.7779V21.4816H247.16V25.7779H242.844V30.0742H247.16V42.963H260.107V47.2593H264.423V42.963H268.739V25.7779H264.423ZM260.107 38.6667H251.475V30.0742H260.107V38.6667Z" fill="#888888"/>
<path d="M277.369 107.407H234.211V111.704H277.369V107.407Z" fill="#3A3A3C"/>
<path d="M173.787 6.10352e-05H130.629V4.29636H173.787V6.10352e-05Z" fill="#090909"/>
<path d="M173.791 8.59262V4.29633H130.632V8.59262H126.316V107.407H130.632V111.704H173.791V107.407H178.106V8.59262H173.791ZM134.948 25.7778H139.264V21.4815H143.58V17.1852H160.843V21.4815H165.159V25.7778H169.475V42.963H165.159V47.2593H160.843V51.5556H143.58V47.2593H139.264V42.963H134.948V25.7778ZM165.159 94.5185H160.843V98.8148H156.527V103.111H147.896V98.8148H143.58V94.5185H139.264V85.9259H143.58V81.6296H147.896V77.3333H156.527V81.6296H160.843V85.9259H165.159V94.5185ZM173.791 68.7407H130.632V64.4444H173.791V68.7407Z" fill="#888888"/>
<path d="M156.526 81.6296V85.9259H152.21V90.2222H147.894V94.5185H143.578V85.9259H147.894V81.6296H156.526Z" fill="#888888"/>
<path d="M160.842 85.926V94.5186H156.526V98.8148H147.895V94.5186H152.21V90.2223H156.526V85.926H160.842Z" fill="#0F87F7"/>
<path d="M160.841 25.7779V21.4816H143.578V25.7779H139.262V42.963H143.578V47.2593H147.893V42.963H160.841V30.0742H165.157V25.7779H160.841ZM156.525 38.6667H147.893V30.0742H156.525V38.6667Z" fill="#888888"/>
<path d="M173.787 111.704H130.629V116H173.787V111.704Z" fill="#090909"/>
<path d="M178.105 8.59265H173.789V30.0741H178.105V8.59265Z" fill="#0F87F7"/>
<path d="M173.788 4.29633H169.473V8.59262H173.788V4.29633Z" fill="#0F87F7"/>
<path d="M165.156 4.29633H160.84V8.59262H165.156V4.29633Z" fill="#0F87F7"/>
<path d="M156.527 4.29633H152.211V8.59262H156.527V4.29633Z" fill="#0F87F7"/>
<path d="M147.894 4.29633H143.578V8.59262H147.894V4.29633Z" fill="#0F87F7"/>
</g>
</g>
<defs>
<clipPath id="clip0_9917_79256">
<rect width="364" height="315" fill="white"/>
</clipPath>
<clipPath id="clip1_9917_79256">
<rect width="128" height="174" fill="white" transform="translate(4 118)"/>
</clipPath>
<clipPath id="clip2_9917_79256">
<rect width="164" height="116" fill="white" transform="translate(122)"/>
</clipPath>
</defs>
</svg>
